v -0.796065 0.000000 -0.078093
v -0.870336 0.000000 -0.024132
v -0.841967 0.000000 0.063179
v -0.750162 -0.000000 0.063179
v -0.721793 -0.000000 -0.024132
v -0.794471 0.770702 -0.006940
v -0.808989 0.521869 -0.044478
v -0.796889 0.170948 -0.053557
v -0.851283 0.170948 -0.014037
v -0.842110 0.521869 -0.020414
v -0.813953 0.770702 0.007215
v -0.830506 0.170948 0.049907
v -0.829459 0.521869 0.018522
v -0.806512 0.770702 0.030117
v -0.763271 0.170948 0.049907
v -0.788519 0.521869 0.018522
v -0.782430 0.770702 0.030117
v -0.742495 0.170948 -0.014037
v -0.775868 0.521869 -0.020414
v -0.774989 0.770702 0.007215
v -0.793862 0.610366 0.000396
v -0.436704 1.018617 0.231131
v -0.914196 1.067191 0.312768
v -1.258011 1.009014 -0.010621
v -0.961330 0.976860 -0.431322
v -0.468502 1.048062 -0.206981
v -0.675189 1.591845 0.324503
v -1.177048 1.633047 0.244142
v -1.098535 1.593588 -0.197982
v -0.706916 1.505926 -0.266376
v -0.378565 1.598257 0.001704
v -0.793357 2.029097 0.001097
v -0.866399 0.780514 0.200201
v -0.584638 0.747613 0.133617
v -0.654817 0.940801 0.403169
v -0.453288 1.029606 0.006279
v -0.596322 0.775444 -0.128562
v -1.048164 0.763495 -0.000867
v -1.102763 1.015445 0.191485
v -0.885256 0.704347 -0.235591
v -1.130245 0.975206 -0.215914
v -0.668890 0.983830 -0.336841
v -0.340943 1.319567 0.135185
v -0.309750 1.319402 -0.137051
v -0.791228 1.319845 0.414400
v -0.553950 1.323992 0.291687
v -1.298708 1.317868 0.136021
v -1.120849 1.306504 0.411870
v -1.081179 1.325716 -0.332379
v -1.208974 1.324436 -0.118599
v -0.486133 1.324317 -0.372630
v -0.797519 1.318300 -0.451001
v -0.490069 1.641696 0.191154
v -0.921493 1.659157 0.333725
v -1.142540 1.617316 0.008691
v -0.919566 1.685090 -0.360315
v -0.431197 1.704764 -0.235616
v -0.722664 1.844281 0.197853
v -0.568884 1.811181 0.000251
v -1.007187 1.895139 0.136072
v -1.033594 1.978387 -0.159050
v -0.727992 1.787303 -0.177663
f 50/28/59 55/38/59 29/37/59
