# Octo 1 - 8
v -0.33 0.95 0.0
v 0.33 0.95 0.0
v 0.95 0.33 0.0
v 0.95 -0.33 0.0
v 0.33 -0.95 0.0
v -0.33 -0.95 0.0
v -0.95 -0.33 0.0
v -0.95 0.33 0.0

# Hex 9 - 14
v -0.33 0.90 0.0
v 0.33 0.90 0.0
v 0.90 0.0 0.0
v 0.33 -0.90 0.0
v -0.33 -0.90 0.0
v -0.90 0.0 0.0

# Five 15 - 19
v 0.0 0.85 0.0
v 0.7 0.2 0.0
v 0.35 -0.85 0.0
v -0.35 -0.85 0.0
v -0.7 0.2 0.0

# Square 20 - 23
v -0.25 0.25 0.0
v 0.25 0.25 0.0
v 0.25 -0.25 0.0
v -0.25 -0.25 0.0

f 1//1 2//1 3//1 4//1 5//1 6//1 7//1 8//1
f 9//1 10//1 11//1 12//1 13//1 14//1
f 15//1 16//1 17//1 18//1 19//1
f 20//1 21//1 22//1 23//1
