# Blender v2.79 (sub 0) OBJ File: 'cessna-172-v3.blend'
# www.blender.org
v 0.655517 1.205095 0.797333
v 0.665959 1.156412 0.804467
v 0.752457 1.209737 -0.867533
v 0.773328 1.098666 -0.867533
v 2.934836 1.283463 0.791005
v 2.935833 1.240252 0.785068
v 2.934836 1.283463 -0.870479
v 2.937165 1.182506 -0.870479
v 5.509304 1.327253 0.421299
v 5.510301 1.284042 0.415362
v 5.508206 1.374858 -0.776908
v 5.510535 1.273902 -0.776908
v 5.510535 1.273902 -0.776908
v 5.510792 1.262748 -0.496179
v 5.510792 1.262748 -0.496179
v 5.507337 1.412529 -0.501199
v 2.937165 1.182506 -0.481209
v 2.933710 1.332287 -0.486228
v 0.757731 1.098666 -0.478263
v 0.729011 1.258867 -0.483283
v 0.732688 -0.348755 -0.690079
v 3.225268 1.221591 -0.789155
v 0.714414 -0.323494 -0.672770
v 3.206993 1.246851 -0.771845
v 0.719385 -0.320930 -0.638803
v 3.211964 1.249415 -0.737878
v 0.742630 -0.343628 -0.622146
v 3.235209 1.226718 -0.721221
v 0.760905 -0.368888 -0.639456
v 3.253484 1.201458 -0.738532
v 0.755935 -0.371452 -0.673423
v 3.248513 1.198894 -0.772498
v 1.465565 -0.712293 1.021679
v 1.348717 -0.714988 1.021680
v 1.467253 -0.785480 1.027375
v 1.350405 -0.788175 1.027376
v 1.468644 -0.845991 0.591074
v 1.351796 -0.848686 0.591075
v 1.466521 -0.754009 0.543643
v 1.349674 -0.756704 0.543644
v 1.464053 -0.646988 0.610074
v 1.347206 -0.649684 0.610075
v 1.463264 -0.612689 0.755309
v 1.346416 -0.615384 0.755310
v 1.464138 -0.650506 0.930195
v 1.347291 -0.653202 0.930197
v 1.451550 -0.798712 0.614379
v 1.366693 -0.800669 0.614380
v 1.451169 -0.782121 0.775831
v 1.450788 -0.765530 0.937283
v 1.365931 -0.767487 0.937284
v 1.453532 -0.884523 0.901730
v 1.368675 -0.886480 0.901731
v 1.454892 -0.943530 0.792426
v 1.370035 -0.945488 0.792427
v 1.454071 -0.907986 0.673402
v 1.369214 -0.909943 0.673403
v 1.366312 -0.784078 0.775832
v 0.083062 -1.007127 -1.151159
v 0.084751 -1.080314 -1.145462
v 0.086142 -1.140825 -1.581763
v 0.084019 -1.048843 -1.629194
v 0.081551 -0.941823 -1.562763
v 0.080762 -0.907523 -1.417528
v 0.081636 -0.945340 -1.242642
v 0.069047 -1.093546 -1.558458
v 0.068667 -1.076955 -1.397006
v 0.068286 -1.060364 -1.235554
v 0.071030 -1.179357 -1.271107
v 0.072390 -1.238364 -1.380410
v 0.071569 -1.202820 -1.499435
v 0.050351 -0.951181 -1.423848
v 0.037119 -0.716125 -1.377306
v 0.056944 -0.956793 -1.393831
v 0.051522 -0.721736 -1.347288
v 0.037707 -0.962608 -1.366699
v 0.032285 -0.727552 -1.320157
v 1.437999 -0.801823 0.688686
v 0.141877 -0.252133 0.629143
v 1.454309 -0.760582 0.714375
v 0.158187 -0.210893 0.654832
v 1.454169 -0.754504 0.773526
v 0.158047 -0.204814 0.713983
v 1.437720 -0.789666 0.806989
v 0.141598 -0.239976 0.747446
v 1.421410 -0.830906 0.781300
v 0.125288 -0.281217 0.721757
v 1.421549 -0.836984 0.722149
v 0.125427 -0.287295 0.662605
v 0.026619 -1.094525 -1.558457
v 0.025858 -1.061343 -1.235553
v 0.028602 -1.180336 -1.271107
v 0.029962 -1.239343 -1.380410
v 0.029141 -1.203799 -1.499435
v 0.024639 -1.008475 -1.151158
v 0.026328 -1.081662 -1.145461
v 0.027718 -1.142173 -1.581763
v 0.025596 -1.050191 -1.629193
v 0.023128 -0.943170 -1.562763
v 0.022338 -0.908871 -1.417527
v 0.023213 -0.946688 -1.242641
v 0.023586 -0.962934 -1.366699
v 0.018164 -0.727877 -1.320157
v 0.023325 -0.951625 -1.423847
v 0.017903 -0.716568 -1.377306
v 0.148596 1.063720 4.943500
v -0.011039 1.131927 5.964566
v 2.202475 1.175147 5.215402
v 2.227647 1.222530 5.722990
v 0.294990 1.183683 6.518123
v 2.191514 1.258748 6.164271
v 2.228445 1.187934 5.726547
v -0.010241 1.097331 5.968123
v -0.004910 1.179115 5.778920
v -0.005935 1.223531 6.511543
v -0.016895 1.698640 6.650836
v -0.040199 3.422269 7.010867
v -0.005422 1.201323 6.041309
v -0.046752 3.423134 6.621360
v -0.022215 1.884539 6.109255
v 0.584639 0.701661 -1.209009
v 0.018104 -0.767277 -0.907863
v 0.013474 -0.566579 0.977619
v 0.019071 -0.809226 -1.316092
v 0.553384 -0.563482 -1.932684
v 0.531616 0.380098 -2.070080
v 0.016109 -0.680816 -1.921898
v 0.383052 0.964935 2.085999
v 0.010952 -0.457265 1.330559
v -0.021641 0.955599 2.085997
v -0.006373 1.223400 6.039707
v -0.025416 1.115741 6.046357
v -0.027931 1.228296 6.043508
v 0.654744 1.204556 0.797140
v 0.754985 -0.547812 -0.928671
v 0.670825 -0.348948 0.956812
v 0.755953 -0.589760 -1.336900
v 0.645415 -0.155016 -2.121828
v 0.616250 0.150814 -2.138883
v 0.552427 -0.242467 1.309771
v -0.007490 1.114797 6.044314
v 0.788143 0.700016 -0.954004
v 0.741215 0.821747 0.930264
v 0.793108 0.266234 -1.417807
v 0.600639 0.714117 2.119251
v -0.005884 1.202753 6.039257
v 0.424330 -0.203245 -2.271967
v 0.416304 0.144661 -2.300437
v 0.007099 -0.290265 -2.264011
v -0.003156 0.154259 -2.294254
v 0.847665 -0.026835 -0.918792
v 0.763749 0.161435 0.951701
v 0.849597 -0.110579 -1.378953
v 0.657247 0.332139 1.786330
v -0.006878 1.112664 6.039257
v -0.007369 1.182483 6.040129
v 0.016968 -0.718060 -0.445492
v -0.028312 1.244761 -0.486058
v 0.734346 -0.499045 -0.466299
v 0.776635 0.729868 -0.491930
v 0.827086 0.019334 -0.460096
v -0.027155 1.194620 0.796544
v -0.705843 1.173691 0.797333
v -0.714029 1.124578 0.804467
v -0.802894 1.173858 -0.867533
v -0.818621 1.061943 -0.867533
v -2.986351 1.146872 0.791005
v -2.985355 1.103661 0.785068
v -2.986351 1.146872 -0.870479
v -2.984023 1.045915 -0.870479
v -5.560100 1.071901 0.421299
v -5.559103 1.028691 0.415362
v -5.561198 1.119507 -0.776908
v -5.558869 1.018551 -0.776908
v -5.558869 1.018551 -0.776908
v -5.558612 1.007397 -0.496179
v -5.558612 1.007397 -0.496179
v -5.562067 1.157178 -0.501199
v -2.984023 1.045915 -0.481209
v -2.987478 1.195696 -0.486228
v -0.803041 1.062662 -0.478263
v -0.781738 1.224016 -0.483283
v -0.711281 -0.382065 -0.690079
v -3.273621 1.071673 -0.789155
v -0.694191 -0.355988 -0.672770
v -3.256530 1.097749 -0.771845
v -0.699275 -0.353656 -0.638803
v -3.261614 1.100081 -0.737878
v -0.721449 -0.377401 -0.622146
v -3.283788 1.076337 -0.721221
v -0.738540 -0.403478 -0.639456
v -3.300879 1.050260 -0.738532
v -0.733456 -0.405809 -0.673423
v -3.295795 1.047928 -0.772498
v -1.426615 -0.779010 1.021679
v -1.309767 -0.776315 1.021680
v -1.424926 -0.852197 1.027375
v -1.308079 -0.849501 1.027376
v -1.423525 -0.912708 0.591074
v -1.306678 -0.910012 0.591075
v -1.425647 -0.820726 0.543643
v -1.308799 -0.818031 0.543644
v -1.428116 -0.713705 0.610074
v -1.311269 -0.711010 0.610075
v -1.428909 -0.679406 0.755309
v -1.312062 -0.676711 0.755310
v -1.428039 -0.717223 0.930195
v -1.311191 -0.714528 0.930197
v -1.408629 -0.864691 0.614379
v -1.323773 -0.862733 0.614380
v -1.409014 -0.848100 0.775831
v -1.409399 -0.831509 0.937283
v -1.324542 -0.829552 0.937284
v -1.406653 -0.950502 0.901730
v -1.321796 -0.948545 0.901731
v -1.405291 -1.009509 0.792426
v -1.320434 -1.007552 0.792427
v -1.406109 -0.973965 0.673402
v -1.321252 -0.972008 0.673403
v -1.324157 -0.846143 0.775832
v -0.031988 -1.009781 -1.151159
v -0.030299 -1.082968 -1.145462
v -0.028898 -1.143479 -1.581763
v -0.031020 -1.051497 -1.629194
v -0.033489 -0.944476 -1.562763
v -0.034282 -0.910177 -1.417528
v -0.033412 -0.947994 -1.242642
v -0.014003 -1.095462 -1.558458
v -0.014387 -1.078871 -1.397006
v -0.014772 -1.062280 -1.235554
v -0.012026 -1.181273 -1.271107
v -0.010664 -1.240280 -1.380410
v -0.011482 -1.204736 -1.499435
v -0.001890 -0.952386 -1.423848
v 0.000488 -0.716970 -1.377306
v -0.008218 -0.958296 -1.393831
v -0.013640 -0.723239 -1.347288
v 0.011267 -0.963218 -1.366699
v 0.005844 -0.728162 -1.320157
v -1.394950 -0.867174 0.688686
v -0.125554 -0.258302 0.629143
v -1.413144 -0.826729 0.714375
v -0.143748 -0.217858 0.654832
v -1.413285 -0.820651 0.773526
v -0.143889 -0.211780 0.713983
v -1.395231 -0.855017 0.806989
v -0.125835 -0.246146 0.747446
v -1.377037 -0.895461 0.781300
v -0.107641 -0.286590 0.721757
v -1.376896 -0.901540 0.722149
v -0.107500 -0.292668 0.662605
v 0.028425 -1.094483 -1.558457
v 0.027656 -1.061301 -1.235553
v 0.030402 -1.180294 -1.271107
v 0.031764 -1.239301 -1.380410
v 0.030945 -1.203757 -1.499435
v 0.026436 -1.008433 -1.151158
v 0.028124 -1.081620 -1.145461
v 0.029525 -1.142131 -1.581763
v 0.027403 -1.050149 -1.629193
v 0.024934 -0.943129 -1.562763
v 0.024141 -0.908829 -1.417527
v 0.025011 -0.946647 -1.242641
v 0.025387 -0.962893 -1.366699
v 0.019965 -0.727836 -1.320157
v 0.025127 -0.951583 -1.423847
v 0.019704 -0.716526 -1.377306
v -0.192942 1.055841 4.943500
v -0.036622 1.131337 5.964566
v -2.249774 1.072442 5.215402
v -2.277104 1.118614 5.722990
v -0.344712 1.168926 6.518123
v -2.242680 1.156459 6.164271
v -2.276306 1.084018 5.726547
v -0.035824 1.096741 5.968123
v -0.019779 0.955992 2.085978
v -0.044920 1.178192 5.778920
v -0.045945 1.222608 6.511543
v -0.076766 3.426370 6.115492
v -0.036743 1.691373 4.853912
v -0.056905 1.697717 6.650836
v -0.113105 3.420587 7.010867
v -0.076656 3.421597 7.010867
v -0.036904 1.698347 6.650836
v -0.025944 1.223238 6.511543
v -0.045433 1.200400 6.041309
v -0.106599 3.421754 6.621360
v -0.060162 1.883663 6.109255
v -0.611826 0.674061 -1.209009
v 0.021842 -0.767191 -0.907863
v 0.017212 -0.566493 0.977619
v -0.013594 0.687897 -1.208991
v 0.022810 -0.809140 -1.316092
v -0.522266 -0.588295 -1.932684
v -0.544032 0.355285 -2.070080
v 0.019848 -0.680730 -1.921898
v -0.006146 0.365030 -2.090139
v -0.422593 0.946351 2.085999
v 0.014691 -0.457179 1.330559
v -0.017901 0.955686 2.085997
v -0.045502 1.222497 6.039707
v -0.021514 1.115831 6.046357
v -0.024192 1.228382 6.043508
v -0.705046 1.173188 0.797140
v -0.025316 1.196026 -0.868150
v -0.724375 -0.581938 -0.928671
v -0.649475 -0.379405 0.956812
v -0.723408 -0.623887 -1.336900
v -0.633035 -0.184508 -2.121828
v -0.618003 0.122342 -2.138883
v -0.536113 -0.267577 1.309771
v -0.039378 1.114062 6.044314
v -0.815037 0.663034 -0.954004
v -0.773773 0.786799 0.930264
v -0.799995 0.229484 -1.417807
v -0.628384 0.685765 2.119251
v -0.045037 1.201849 6.039257
v -0.409961 -0.222491 -2.271967
v -0.417986 0.125415 -2.300437
v 0.010839 -0.290178 -2.264011
v 0.000585 0.154345 -2.294254
v -0.840980 -0.065789 -0.918792
v -0.765835 0.126150 0.951701
v -0.839048 -0.149533 -1.378953
v -0.667318 0.301584 1.786330
v -0.039891 1.111903 6.039257
v -0.042620 1.181670 6.040129
v 0.020707 -0.717974 -0.445492
v -0.024571 1.244847 -0.486058
v -0.706007 -0.532271 -0.466299
v -0.804918 0.693385 -0.491930
v -0.822552 -0.018720 -0.460096
v -0.023414 1.194706 0.796544
v -0.023407 1.113287 6.039257
vn -0.0177 0.9917 -0.1273
vn -0.0014 -0.0001 -1.0000
vn 0.1431 -0.1315 0.9809
vn 0.0052 0.0137 0.9999
vn -0.0337 0.9987 0.0391
vn 0.0379 -0.9982 0.0466
vn 0.9997 0.0231 -0.0000
vn -0.0311 0.9910 -0.1300
vn 0.0268 -0.9990 0.0363
vn 0.0363 0.0008 -0.9993
vn -0.0168 0.9990 0.0402
vn -0.0334 0.9913 -0.1274
vn 0.0386 -0.9993 0.0008
vn -0.0195 0.9980 0.0609
vn 0.0336 -0.9993 -0.0166
vn 0.2264 -0.4149 -0.8813
vn -0.2831 0.3943 -0.8743
vn -0.7455 -0.6476 0.1580
vn -0.0018 0.0776 0.9970
vn 0.0228 -0.9903 0.1374
vn 0.0106 -0.4581 -0.8888
vn -0.9997 -0.0231 0.0000
vn 0.9449 0.0993 -0.3119
vn 0.8215 -0.0925 0.5626
vn 0.2295 0.4476 -0.8643
vn 0.3924 0.9151 -0.0931
vn 0.2257 0.6141 0.7563
vn -0.2295 -0.4476 0.8643
vn -0.9198 0.3901 -0.0423
vn -0.3924 -0.9151 0.0931
vn -0.2257 -0.6141 -0.7563
vn 0.9198 -0.3901 0.0423
vn -0.0045 0.1941 -0.9810
vn 0.0037 -0.1941 0.9810
vn 0.0463 -0.9958 0.0794
vn 0.0506 -0.9959 0.0743
vn -0.9997 -0.0240 -0.0094
vn -0.0599 0.9882 -0.1410
vn -0.0467 0.9983 -0.0342
vn 0.9994 0.0309 -0.0136
vn 0.9988 0.0494 -0.0070
vn 0.0054 1.0000 0.0044
vn 0.0035 -0.2044 0.9789
vn 0.0041 -0.2812 0.9596
vn 0.9998 0.0172 -0.0093
vn 0.9997 0.0241 -0.0009
vn 0.2866 -0.9530 0.0986
vn 0.3307 -0.8852 0.3272
vn 0.5967 -0.0219 -0.8022
vn -0.9997 -0.0230 -0.0000
vn 0.3039 -0.9466 0.1075
vn 0.2482 -0.9545 -0.1653
vn -0.0110 0.9977 -0.0675
vn -0.0175 0.9834 0.1807
vn 0.9312 -0.2741 0.2403
vn 0.9326 -0.3000 0.2007
vn 0.9981 0.0543 0.0303
vn 0.9920 0.0395 0.1199
vn 0.9828 -0.1821 0.0296
vn -0.0088 -0.9737 0.2276
vn 0.9824 -0.1762 0.0621
vn 0.9235 -0.2653 -0.2770
vn 0.1254 -0.6540 -0.7460
vn 0.3515 -0.8877 0.2974
vn 0.9937 0.1011 -0.0492
vn 0.9883 0.0099 0.1521
vn 0.9603 0.0991 -0.2608
vn 0.5671 -0.4479 -0.6912
vn 0.9999 -0.0165 0.0019
vn 0.9822 -0.1773 0.0622
vn 0.9966 0.0776 0.0283
vn 0.2898 -0.9510 0.1076
vn 0.8759 -0.0293 -0.4815
vn -0.0281 0.9915 -0.1273
vn 0.0014 -0.0001 -1.0000
vn -0.1369 -0.1379 0.9809
vn -0.0058 0.0134 0.9999
vn -0.0124 0.9992 0.0391
vn 0.0082 -0.9989 0.0466
vn -0.0147 0.9914 -0.1300
vn 0.0193 -0.9992 0.0363
vn -0.0363 -0.0008 -0.9993
vn -0.0293 0.9988 0.0402
vn -0.0123 0.9918 -0.1274
vn 0.0075 -1.0000 0.0008
vn -0.0265 0.9978 0.0609
vn 0.0125 -0.9998 -0.0166
vn -0.2070 -0.4249 -0.8813
vn 0.2647 0.4069 -0.8743
vn 0.7745 -0.6125 0.1580
vn -0.9485 0.0556 -0.3119
vn -0.8164 -0.1302 0.5626
vn -0.2499 0.4365 -0.8643
vn -0.4341 0.8960 -0.0931
vn -0.2538 0.6031 0.7563
vn 0.2499 -0.4365 0.8643
vn 0.9008 0.4321 -0.0423
vn 0.4341 -0.8960 0.0931
vn 0.2538 -0.6031 -0.7563
vn -0.9008 -0.4321 0.0423
vn 0.0052 -0.1941 0.9810
vn -0.0003 -0.9968 0.0794
vn -0.0046 -0.9972 0.0743
vn 0.9997 0.0221 -0.0094
vn 0.0143 0.9899 -0.1410
vn 0.0007 0.9994 -0.0342
vn -0.9998 -0.0152 -0.0136
vn -1.0000 0.0033 -0.0070
vn -0.0515 0.9987 0.0044
vn 0.0059 -0.2044 0.9789
vn 0.0089 -0.2811 0.9596
vn -0.9995 -0.0290 -0.0093
vn -0.9998 -0.0220 -0.0009
vn -0.2424 -0.9652 0.0986
vn -0.2895 -0.8995 0.3272
vn -0.5950 -0.0494 -0.8022
vn -0.2599 -0.9596 0.1075
vn -0.2039 -0.9649 -0.1653
vn -0.0350 0.9971 -0.0675
vn -0.0278 0.9831 0.1807
vn -0.9175 -0.3168 0.2403
vn -0.9178 -0.3427 0.2007
vn -0.9995 0.0082 0.0303
vn -0.9928 -0.0063 0.1199
vn -0.9734 -0.2273 0.0296
vn 0.0537 -0.9723 0.2276
vn -0.9732 -0.2213 0.0621
vn -0.9103 -0.3076 -0.2770
vn -0.0951 -0.6591 -0.7460
vn -0.3102 -0.9030 0.2974
vn -0.9973 0.0552 -0.0492
vn -0.9877 -0.0357 0.1521
vn -0.9638 0.0547 -0.2608
vn -0.5459 -0.4735 -0.6912
vn -0.9980 -0.0625 0.0019
vn -0.9730 -0.2224 0.0622
vn -0.9991 0.0315 0.0283
vn -0.2457 -0.9634 0.1076
vn -0.8737 -0.0697 -0.4815
vn -0.0122 0.5271 -0.8497
vn -0.0224 0.9730 -0.2299
vn -0.0225 0.9771 0.2114
vn -0.0191 0.8284 0.5598
vn 0.9989 0.0355 -0.0291
vn 0.6502 0.5584 -0.5153
vn -0.0177 0.9379 -0.3465
vn 0.7767 0.6286 0.0386
vn 0.8414 0.4771 -0.2540
vn 0.5622 0.4211 -0.7118
vn 0.0064 0.6968 -0.7173
vn 0.8593 0.4671 0.2084
vn 0.9721 0.2318 0.0352
vn -0.0121 0.5271 -0.8497
vn -0.9995 -0.0106 -0.0291
vn -0.6752 0.5278 -0.5153
vn -0.0256 0.9377 -0.3465
vn -0.8049 0.5922 0.0386
vn -0.8625 0.4378 -0.2540
vn -0.5810 0.3947 -0.7118
vn -0.0385 0.6957 -0.7173
vn -0.8799 0.4270 0.2084
vn -0.9818 0.1867 0.0352
vn 0.2831 -0.3943 0.8743
vn 0.5326 -0.8463 -0.0141
vn -0.5326 0.8463 0.0141
vn -0.2264 0.4149 0.8813
vn 0.7455 0.6476 -0.1580
vn -0.2647 -0.4069 0.8743
vn -0.4930 -0.8699 -0.0141
vn 0.4930 0.8699 0.0141
vn 0.2070 0.4249 0.8813
vn -0.7745 0.6125 -0.1580
vn 0.0066 -0.2861 0.9582
vn 0.0203 -0.8797 0.4751
vn 0.0221 -0.9579 -0.2862
vn 0.0109 -0.4750 -0.8799
vn 0.0110 -0.4750 -0.8799
vn 0.7749 0.1581 -0.6120
vn -0.0100 -0.0741 -0.9972
vn -0.0108 0.5585 -0.8294
vn 0.9987 0.0399 0.0304
vn 0.9896 0.1387 0.0389
vn -0.7814 0.1222 -0.6120
vn 0.0134 -0.0736 -0.9972
vn -0.0150 0.5585 -0.8294
vn -0.9995 -0.0062 0.0304
vn -0.9949 0.0929 0.0389
# f 20//1 3//1 305//1 158//1
# f 3//2 7//2 8//2 4//2
# f 6//3 10//3 9//3 5//3
# f 5//4 1//4 2//4 6//4
# f 20//5 1//5 5//5 18//5
f 17//6 6//6 2//6 19//6
f 16//7 9//7 10//7 15//7
f 18//8 16//8 11//8 7//8
f 17//9 14//9 10//9 6//9
f 7//10 11//10 13//10 8//10
f 162//11 134//11 20//11 158//11
f 3//12 20//12 18//12 7//12
f 8//13 17//13 19//13 4//13
f 11//7 16//7 15//7 12//7
f 5//14 9//14 16//14 18//14
f 8//15 13//15 14//15 17//15
f 25//16 26//16 28//16 27//16
f 27//17 28//17 30//17 29//17
# f 24//18 22//18 32//18 30//18 28//18 26//18
v 0.109062 -0.231187 -2.311292
v 0.003451 -0.064465 -2.718149
v 0.206108 -0.053786 -2.314046
v 0.100978 0.118952 -2.316491
v -0.101197 0.114289 -2.316181
v -0.198243 -0.063112 -2.313426
v -0.093113 -0.235851 -2.310982
v -0.036551 -0.151210 -2.355084
v -0.101617 -0.045520 -2.429033
v -0.040294 -0.144736 -2.335867
v -0.105360 -0.039046 -2.409817
v -1.268970 -0.876266 -2.355212
v -1.305632 -0.816713 -2.396880
v -1.272712 -0.869792 -2.335996
v -1.309374 -0.810240 -2.377664
v -0.661157 -0.522509 -2.329509
v -0.726223 -0.416818 -2.403459
v -0.657415 -0.528982 -2.348726
v -0.722481 -0.423292 -2.422675
v -0.069084 -0.098365 -2.392059
v -0.072827 -0.091891 -2.372842
v -1.291043 -0.840016 -2.356830
v -1.287301 -0.846489 -2.376046
v -0.689948 -0.476137 -2.385700
v -0.693690 -0.469663 -2.366484
v 0.039867 0.040347 -2.358024
v 0.104761 -0.067499 -2.428952
v 0.043655 0.034447 -2.338633
v 0.108549 -0.073398 -2.409561
v 1.272256 0.765034 -2.382651
v 1.308821 0.704267 -2.422616
v 1.276044 0.759134 -2.363259
v 1.312609 0.698368 -2.403224
v 0.664519 0.412219 -2.344991
v 0.729413 0.304374 -2.415919
v 0.660731 0.418119 -2.364382
v 0.725624 0.310273 -2.435310
v 0.072314 -0.013576 -2.393488
v 0.076102 -0.019476 -2.374097
v 1.294327 0.728751 -2.383242
v 1.290538 0.734650 -2.402633
v 0.693178 0.364196 -2.399846
v 0.696966 0.358296 -2.380455
vn 0.8543 0.5198 -0.0087
vn -0.2596 0.4412 0.8590
vn -0.8543 -0.5198 0.0087
vn 0.2597 -0.4412 -0.8590
vn 0.4573 -0.8120 0.3626
vn -0.4871 0.7945 -0.3625
vn -0.5324 0.7654 -0.3615
vn 0.4871 -0.7945 0.3625
vn -0.2597 0.4412 0.8590
vn 0.2617 -0.4155 0.8711
vn -0.2617 0.4155 -0.8711
vn -0.4564 0.8225 0.3394
vn 0.4863 -0.8050 -0.3399
vn 0.5315 -0.7759 -0.3399
vn -0.4863 0.8050 0.3399
vn -0.2617 0.4155 -0.8712
vn 0.8046 -0.4462 -0.3917
vn 0.7834 0.4711 -0.4053
vn -0.0217 0.9114 -0.4109
vn -0.8056 0.4344 -0.4029
vn -0.7844 -0.4829 -0.3893
vn 0.0207 -0.9232 -0.3837
vn 0.0012 0.0149 0.9999
