# Blender 4.4.0
# www.blender.org
mtllib Tree_3.mtl
o LeafTree_2
v -0.796065 0.000000 -0.078093
v -0.870336 0.000000 -0.024132
v -0.841967 0.000000 0.063179
v -0.750162 -0.000000 0.063179
v -0.721793 -0.000000 -0.024132
v -0.794471 0.770702 -0.006940
v -0.808989 0.521869 -0.044478
v -0.796889 0.170948 -0.053557
v -0.851283 0.170948 -0.014037
v -0.842110 0.521869 -0.020414
v -0.813953 0.770702 0.007215
v -0.830506 0.170948 0.049907
v -0.829459 0.521869 0.018522
v -0.806512 0.770702 0.030117
v -0.763271 0.170948 0.049907
v -0.788519 0.521869 0.018522
v -0.782430 0.770702 0.030117
v -0.742495 0.170948 -0.014037
v -0.775868 0.521869 -0.020414
v -0.774989 0.770702 0.007215
v -0.793862 0.610366 0.000396
v -0.436704 1.018617 0.231131
v -0.914196 1.067191 0.312768
v -1.258011 1.009014 -0.010621
v -0.961330 0.976860 -0.431322
v -0.468502 1.048062 -0.206981
v -0.675189 1.591845 0.324503
v -1.177048 1.633047 0.244142
v -1.098535 1.593588 -0.197982
v -0.706916 1.505926 -0.266376
v -0.378565 1.598257 0.001704
v -0.793357 2.029097 0.001097
v -0.866399 0.780514 0.200201
v -0.584638 0.747613 0.133617
v -0.654817 0.940801 0.403169
v -0.453288 1.029606 0.006279
v -0.596322 0.775444 -0.128562
v -1.048164 0.763495 -0.000867
v -1.102763 1.015445 0.191485
v -0.885256 0.704347 -0.235591
v -1.130245 0.975206 -0.215914
v -0.668890 0.983830 -0.336841
v -0.340943 1.319567 0.135185
v -0.309750 1.319402 -0.137051
v -0.791228 1.319845 0.414400
v -0.553950 1.323992 0.291687
v -1.298708 1.317868 0.136021
v -1.120849 1.306504 0.411870
v -1.081179 1.325716 -0.332379
v -1.208974 1.324436 -0.118599
v -0.486133 1.324317 -0.372630
v -0.797519 1.318300 -0.451001
v -0.490069 1.641696 0.191154
v -0.921493 1.659157 0.333725
v -1.142540 1.617316 0.008691
v -0.919566 1.685090 -0.360315
v -0.431197 1.704764 -0.235616
v -0.722664 1.844281 0.197853
v -0.568884 1.811181 0.000251
v -1.007187 1.895139 0.136072
v -1.033594 1.978387 -0.159050
v -0.727992 1.787303 -0.177663
vn -0.5840 0.1126 -0.8039
vn -0.9474 0.0874 0.3078
vn -0.0000 0.0774 0.9970
vn -0.0000 -1.0000 -0.0000
vn 0.9466 0.0965 0.3076
vn 0.5837 0.1181 -0.8034
vn 0.5855 0.0874 -0.8059
vn 0.5873 0.0412 -0.8083
vn -0.0000 1.0000 -0.0000
vn 0.9504 -0.0376 0.3088
vn 0.9467 0.0956 0.3076
vn -0.0000 -0.0465 0.9989
vn -0.0000 0.0891 0.9960
vn -0.9485 0.0731 0.3082
vn -0.9506 0.0305 0.3089
vn -0.5807 0.1545 -0.7993
vn -0.5878 0.0007 -0.8090
vn 0.0690 -0.7470 0.6612
vn 0.8873 -0.4528 -0.0876
vn -0.4555 -0.7526 0.4755
vn -0.5102 -0.8485 -0.1403
vn 0.3699 -0.8050 -0.4638
vn 0.9413 -0.3267 -0.0854
vn -0.3970 -0.1696 0.9020
vn -0.7315 -0.3687 0.5736
vn -0.7830 -0.0947 -0.6147
vn 0.5856 -0.3891 -0.7112
vn 0.5916 0.0679 0.8033
vn 0.0081 -0.3766 0.9263
vn -0.9429 0.0331 -0.3314
vn -0.3797 0.1294 -0.9160
vn 0.7614 -0.2970 -0.5763
vn 0.4300 0.4682 0.7720
vn -0.3278 0.5338 0.7795
vn -0.9568 0.1842 -0.2249
vn 0.5777 0.2845 -0.7651
vn 0.7385 0.6610 0.1329
vn 0.5646 0.5839 -0.5833
vn 0.1998 0.9316 -0.3037
vn -0.1045 0.2919 -0.9507
vn 0.3424 0.6166 -0.7089
vn 0.3437 0.6185 -0.7066
vn -0.7109 0.1885 -0.6775
vn -0.3748 0.8830 0.2826
vn -0.9142 0.3612 0.1837
vn -0.8571 0.4902 -0.1584
vn -0.0198 0.7252 0.6883
vn -0.0559 0.6291 0.7753
vn 0.1601 0.4665 0.8699
vn 0.6424 0.6602 0.3893
vn 0.6177 0.6972 0.3639
vn 0.7161 0.6419 0.2743
vn 0.9563 0.2792 -0.0868
vn 0.7975 0.0991 -0.5951
vn -0.1526 0.3543 -0.9226
vn 0.6210 0.3766 -0.6874
vn -0.3816 0.1002 -0.9189
vn -0.7192 0.2738 -0.6386
vn -0.9220 0.3099 -0.2319
vn -0.8913 0.3350 -0.3055
vn -0.9015 0.4025 -0.1590
vn -0.3402 0.3827 0.8590
vn -0.0166 0.2252 0.9742
vn 0.1095 0.2695 0.9568
vn 0.5512 0.1489 0.8209
vn 0.5886 0.1339 0.7973
vn 0.8471 0.3182 0.4256
vn 0.1744 0.6466 -0.7427
vn 0.2417 -0.2289 -0.9430
vn 0.3055 -0.2002 -0.9309
vn -0.8420 0.1974 -0.5021
vn -0.8571 -0.0504 -0.5127
vn -0.8515 -0.0464 -0.5223
vn -0.8302 0.1349 0.5409
vn -0.7732 -0.4127 0.4815
vn -0.3193 -0.5846 0.7459
vn 0.4558 0.0979 0.8847
vn 0.4532 0.1370 0.8808
vn 0.6014 0.0731 0.7956
vn 0.9763 0.1853 0.1118
vn 0.9108 -0.3994 0.1046
vn 0.8699 -0.4822 -0.1038
vn 0.5816 -0.4647 -0.6676
vn 0.4050 -0.5720 -0.7133
vn 0.2756 -0.5088 -0.8156
vn -0.6534 -0.5534 -0.5166
vn -0.7102 -0.6179 -0.3372
vn -0.7085 -0.6190 -0.3390
vn -0.6582 -0.5418 0.5228
vn -0.5860 -0.5681 0.5778
vn -0.4194 -0.3915 0.8191
vn 0.8891 -0.4462 -0.1020
vn 0.5936 -0.7971 -0.1111
vn -0.4666 -0.3896 0.7941
vn 0.0452 -0.8064 0.5897
vn 0.6307 -0.5436 0.5538
vt 0.962101 0.031740
vt 0.962101 0.004754
vt 0.962101 0.087138
vt 0.962101 0.126420
vt 0.773759 0.542211
vt 0.773759 0.552550
vt 0.773759 0.555029
vt 0.773759 0.572966
vt 0.773759 0.573794
vt 0.773759 0.553747
vt 0.773759 0.549291
vt 0.773759 0.554647
vt 0.773759 0.595639
vt 0.773759 0.576626
vt 0.773759 0.567104
vt 0.773759 0.595659
vt 0.773759 0.572243
vt 0.773759 0.572727
vt 0.773759 0.595511
vt 0.773759 0.569821
vt 0.773759 0.569696
vt 0.773759 0.596102
vt 0.773759 0.575185
vt 0.773759 0.570346
vt 0.773759 0.595996
vt 0.773759 0.595972
vt 0.773759 0.594654
vt 0.773759 0.596005
vt 0.773759 0.595543
vt 0.773759 0.595626
vt 0.773759 0.616151
vt 0.773759 0.619906
vt 0.773759 0.635168
vt 0.773759 0.619255
vt 0.773759 0.621222
vt 0.773759 0.638999
vt 0.773759 0.616282
vt 0.773759 0.618070
vt 0.773759 0.645271
vt 0.773759 0.609678
vt 0.773759 0.623175
vt 0.773759 0.630876
vt 0.773759 0.616634
vt 0.773759 0.624658
vt 0.773759 0.632674
vt 0.773759 0.649091
s 0
usemtl TreeMaterial
f 8/1/1 2/2/1 9/1/1
f 9/1/2 3/2/2 12/1/2
f 3/2/3 15/1/3 12/1/3
f 1/2/4 4/2/4 3/2/4
f 4/2/5 18/1/5 15/1/5
f 5/2/6 8/1/6 18/1/6
f 19/3/7 6/4/7 20/4/7
f 19/3/8 8/1/8 7/3/8
f 6/4/9 14/4/9 17/4/9
f 16/3/10 20/4/10 17/4/10
f 16/3/11 18/1/11 19/3/11
f 14/4/12 16/3/12 17/4/12
f 12/1/13 16/3/13 13/3/13
f 11/4/14 13/3/14 14/4/14
f 9/1/15 13/3/15 10/3/15
f 6/4/16 10/3/16 11/4/16
f 7/3/17 9/1/17 10/3/17
f 8/1/1 1/2/1 2/2/1
f 9/1/2 2/2/2 3/2/2
f 3/2/3 4/2/3 15/1/3
f 3/2/4 2/2/4 1/2/4
f 1/2/4 5/2/4 4/2/4
f 4/2/5 5/2/5 18/1/5
f 5/2/6 1/2/6 8/1/6
f 19/3/7 7/3/7 6/4/7
f 19/3/8 18/1/8 8/1/8
f 17/4/9 20/4/9 6/4/9
f 6/4/9 11/4/9 14/4/9
f 16/3/10 19/3/10 20/4/10
f 16/3/11 15/1/11 18/1/11
f 14/4/12 13/3/12 16/3/12
f 12/1/13 15/1/13 16/3/13
f 11/4/14 10/3/14 13/3/14
f 9/1/15 12/1/15 13/3/15
f 6/4/16 7/3/16 10/3/16
f 7/3/17 8/1/17 9/1/17
f 21/5/18 34/6/18 33/7/18
f 22/8/19 34/6/19 36/9/19
f 21/5/20 33/7/20 38/10/20
f 21/5/21 38/10/21 40/11/21
f 21/5/22 40/11/22 37/12/22
f 22/8/23 36/9/23 43/13/23
f 23/14/24 35/15/24 45/16/24
f 24/17/25 39/18/25 47/19/25
f 25/20/26 41/21/26 49/22/26
f 26/23/27 42/24/27 51/25/27
f 22/8/28 43/13/28 46/26/28
f 23/14/29 45/16/29 48/27/29
f 24/17/30 47/19/30 50/28/30
f 25/20/31 49/22/31 52/29/31
f 26/23/32 51/25/32 44/30/32
f 27/31/33 53/32/33 58/33/33
f 28/34/34 54/35/34 60/36/34
f 29/37/35 55/38/35 61/39/35
f 30/40/36 56/41/36 62/42/36
f 31/43/37 57/44/37 59/45/37
f 59/45/38 62/42/38 32/46/38
f 59/45/39 57/44/39 62/42/39
f 57/44/40 30/40/40 62/42/40
f 62/42/41 61/39/41 32/46/41
f 62/42/42 56/41/42 61/39/42
f 56/41/43 29/37/43 61/39/43
f 61/39/44 60/36/44 32/46/44
f 61/39/45 55/38/45 60/36/45
f 55/38/46 28/34/46 60/36/46
f 60/36/47 58/33/47 32/46/47
f 60/36/48 54/35/48 58/33/48
f 54/35/49 27/31/49 58/33/49
f 58/33/50 59/45/50 32/46/50
f 58/33/51 53/32/51 59/45/51
f 53/32/52 31/43/52 59/45/52
f 44/30/53 57/44/53 31/43/53
f 44/30/54 51/25/54 57/44/54
f 51/25/55 30/40/55 57/44/55
f 52/29/56 56/41/56 30/40/56
f 52/29/57 49/22/57 56/41/57
f 49/22/58 29/37/58 56/41/58
f 50/28/59 55/38/59 29/37/59
f 50/28/60 47/19/60 55/38/60
f 47/19/61 28/34/61 55/38/61
f 48/27/62 54/35/62 28/34/62
f 48/27/63 45/16/63 54/35/63
f 45/16/64 27/31/64 54/35/64
f 46/26/65 53/32/65 27/31/65
f 46/26/66 43/13/66 53/32/66
f 43/13/67 31/43/67 53/32/67
f 51/25/68 52/29/68 30/40/68
f 51/25/69 42/24/69 52/29/69
f 42/24/70 25/20/70 52/29/70
f 49/22/71 50/28/71 29/37/71
f 49/22/72 41/21/72 50/28/72
f 41/21/73 24/17/73 50/28/73
f 47/19/74 48/27/74 28/34/74
f 47/19/75 39/18/75 48/27/75
f 39/18/76 23/14/76 48/27/76
f 45/16/77 46/26/77 27/31/77
f 45/16/78 35/15/78 46/26/78
f 35/15/79 22/8/79 46/26/79
f 43/13/80 44/30/80 31/43/80
f 43/13/81 36/9/81 44/30/81
f 36/9/82 26/23/82 44/30/82
f 37/12/83 42/24/83 26/23/83
f 37/12/84 40/11/84 42/24/84
f 40/11/85 25/20/85 42/24/85
f 40/11/86 41/21/86 25/20/86
f 40/11/87 38/10/87 41/21/87
f 38/10/88 24/17/88 41/21/88
f 38/10/89 39/18/89 24/17/89
f 38/10/90 33/7/90 39/18/90
f 33/7/91 23/14/91 39/18/91
f 36/9/92 37/12/92 26/23/92
f 36/9/19 34/6/19 37/12/19
f 34/6/93 21/5/93 37/12/93
f 33/7/94 35/15/94 23/14/94
f 33/7/95 34/6/95 35/15/95
f 34/6/96 22/8/96 35/15/96
